<svg xmlns="http://www.w3.org/2000/svg" viewBox="0 0 100 100" width="100" height="100">
  <!-- 太极背景 -->
  <circle cx="50" cy="50" r="48" fill="#fff" stroke="#000" stroke-width="2"/>
  <path d="M50,2 a48,48 0 0,1 0,96 a24,24 0 0,0 0,-48 a24,24 0 0,1 0,-48" fill="#000"/>
  <circle cx="50" cy="26" r="6" fill="#fff"/>
  <circle cx="50" cy="74" r="6" fill="#000"/>
  
  <!-- 中医元素 -->
  <path d="M30,15 Q40,5 50,15 Q60,5 70,15" stroke="#c53030" stroke-width="2" fill="none"/>
  <path d="M30,85 Q40,95 50,85 Q60,95 70,85" stroke="#c53030" stroke-width="2" fill="none"/>
  
  <!-- 叶子装饰 -->
  <path d="M75,40 Q85,45 80,55 Q90,60 75,65" stroke="#2c7a7b" stroke-width="1.5" fill="none"/>
  <path d="M77,42 Q82,45 79,52" stroke="#2c7a7b" stroke-width="1" fill="none"/>
  <path d="M77,63 Q82,60 79,53" stroke="#2c7a7b" stroke-width="1" fill="none"/>
  
  <!-- 文字 -->
  <text x="50" y="53" font-family="Arial, sans-serif" font-size="10" font-weight="bold" text-anchor="middle" fill="#c53030">TCM_Ni</text>
</svg>